# xmcd
#
# Track frame offsets:
#	150
#	16162
#	38782
#	63755
#	82280
#	105505
#	114345
#	133820
#	146392
#	161540
#	175332
#
# Disc length: 2460 seconds
#
# Revision: 0
# Processed by: cddbd v1.5.2PL0 Copyright (c) Steve Scherf et al.
# Submitted via: dBpowerAMP V4.0
#
DISCID=8a099a0b
DTITLE=Holger Stürenburg (8mal11.de) - Return to Wackersdorf
DYEAR=1900
DGENRE=
TTITLE0=Herr G. aus L.
TTITLE1=Sex mit Sabrina
TTITLE2=Nicky
TTITLE3=Markus Egger
TTITLE4=So jung wie Du (Petra)
TTITLE5=Hot Samma Neits
TTITLE6=Ringeltaubenweg (7.Juli 1993)
TTITLE7=Schlampenboogie
TTITLE8=Wirs Do he sinn? (9.Mai 1999)
TTITLE9=Bevor der Sommer geht ´95
TTITLE10=Arschloch - Blues
EXTD=
EXTT0=
EXTT1=
EXTT2=
EXTT3=
EXTT4=
EXTT5=
EXTT6=
EXTT7=
EXTT8=
EXTT9=
EXTT10=
PLAYORDER=
